<?xml version="1.0" encoding="UTF-8"?>
<svg version="1.1" xmlns="http://www.w3.org/2000/svg" width="512" height="512">
<path d="M0 0 C168.96 0 337.92 0 512 0 C512 168.96 512 337.92 512 512 C343.04 512 174.08 512 0 512 C0 343.04 0 174.08 0 0 Z " fill="#0889F8" transform="translate(0,0)"/>
<path d="M0 0 C63.36 0 126.72 0 192 0 C192 10.56 192 21.12 192 32 C213.12 32 234.24 32 256 32 C256 42.56 256 53.12 256 64 C266.56 64 277.12 64 288 64 C288 74.56 288 85.12 288 96 C277.44 96 266.88 96 256 96 C256 127.68 256 159.36 256 192 C245.44 192 234.88 192 224 192 C224 202.56 224 213.12 224 224 C234.56 224 245.12 224 256 224 C256 234.56 256 245.12 256 256 C266.56 256 277.12 256 288 256 C288 266.56 288 277.12 288 288 C266.88 288 245.76 288 224 288 C224 298.56 224 309.12 224 320 C213.44 320 202.88 320 192 320 C192 341.12 192 362.24 192 384 C128.64 384 65.28 384 0 384 C0 362.88 0 341.76 0 320 C-10.56 320 -21.12 320 -32 320 C-32 341.12 -32 362.24 -32 384 C-53.12 384 -74.24 384 -96 384 C-96 352.32 -96 320.64 -96 288 C-85.44 288 -74.88 288 -64 288 C-64 277.44 -64 266.88 -64 256 C-42.88 256 -21.76 256 0 256 C0 234.88 0 213.76 0 192 C10.56 192 21.12 192 32 192 C32 170.88 32 149.76 32 128 C21.44 128 10.88 128 0 128 C0 138.56 0 149.12 0 160 C-10.56 160 -21.12 160 -32 160 C-32 128.32 -32 96.64 -32 64 C-21.44 64 -10.88 64 0 64 C0 42.88 0 21.76 0 0 Z " fill="#8F9595" transform="translate(160,0)"/>
<path d="M0 0 C52.8 0 105.6 0 160 0 C160 168.96 160 337.92 160 512 C107.2 512 54.4 512 0 512 C0 501.44 0 490.88 0 480 C10.56 480 21.12 480 32 480 C32 448.32 32 416.64 32 384 C53.12 384 74.24 384 96 384 C96 373.44 96 362.88 96 352 C74.88 352 53.76 352 32 352 C32 330.88 32 309.76 32 288 C53.12 288 74.24 288 96 288 C96 277.44 96 266.88 96 256 C85.44 256 74.88 256 64 256 C64 245.44 64 234.88 64 224 C53.44 224 42.88 224 32 224 C32 213.44 32 202.88 32 192 C42.56 192 53.12 192 64 192 C64 160.32 64 128.64 64 96 C74.56 96 85.12 96 96 96 C96 85.44 96 74.88 96 64 C85.44 64 74.88 64 64 64 C64 53.44 64 42.88 64 32 C42.88 32 21.76 32 0 32 C0 21.44 0 10.88 0 0 Z " fill="#19F1FB" transform="translate(352,0)"/>
<path d="M0 0 C63.36 0 126.72 0 192 0 C192 10.56 192 21.12 192 32 C213.12 32 234.24 32 256 32 C256 42.56 256 53.12 256 64 C266.56 64 277.12 64 288 64 C288 74.56 288 85.12 288 96 C277.44 96 266.88 96 256 96 C256 127.68 256 159.36 256 192 C245.44 192 234.88 192 224 192 C224 202.56 224 213.12 224 224 C234.56 224 245.12 224 256 224 C256 234.56 256 245.12 256 256 C234.88 256 213.76 256 192 256 C192 234.88 192 213.76 192 192 C181.44 192 170.88 192 160 192 C160 181.44 160 170.88 160 160 C138.88 160 117.76 160 96 160 C96 149.44 96 138.88 96 128 C64.32 128 32.64 128 0 128 C0 138.56 0 149.12 0 160 C-10.56 160 -21.12 160 -32 160 C-32 128.32 -32 96.64 -32 64 C-21.44 64 -10.88 64 0 64 C0 42.88 0 21.76 0 0 Z " fill="#FF7AAC" transform="translate(160,0)"/>
<path d="M0 0 C10.56 0 21.12 0 32 0 C32 21.12 32 42.24 32 64 C95.36 64 158.72 64 224 64 C224 42.88 224 21.76 224 0 C234.56 0 245.12 0 256 0 C256 10.56 256 21.12 256 32 C277.12 32 298.24 32 320 32 C320 42.56 320 53.12 320 64 C298.88 64 277.76 64 256 64 C256 95.68 256 127.36 256 160 C245.44 160 234.88 160 224 160 C224 170.56 224 181.12 224 192 C160.64 192 97.28 192 32 192 C32 181.44 32 170.88 32 160 C21.44 160 10.88 160 0 160 C0 138.88 0 117.76 0 96 C-21.12 96 -42.24 96 -64 96 C-64 85.44 -64 74.88 -64 64 C-42.88 64 -21.76 64 0 64 C0 42.88 0 21.76 0 0 Z " fill="#134995" transform="translate(128,320)"/>
<path d="M0 0 C52.8 0 105.6 0 160 0 C160 21.12 160 42.24 160 64 C138.88 64 117.76 64 96 64 C96 106.24 96 148.48 96 192 C85.44 192 74.88 192 64 192 C64 181.44 64 170.88 64 160 C42.88 160 21.76 160 0 160 C0 107.2 0 54.4 0 0 Z " fill="#0AB8F9" transform="translate(0,0)"/>
<path d="M0 0 C10.56 0 21.12 0 32 0 C32 31.68 32 63.36 32 96 C42.56 96 53.12 96 64 96 C64 106.56 64 117.12 64 128 C85.12 128 106.24 128 128 128 C128 149.12 128 170.24 128 192 C138.56 192 149.12 192 160 192 C160 202.56 160 213.12 160 224 C107.2 224 54.4 224 0 224 C0 150.08 0 76.16 0 0 Z " fill="#0A66F9" transform="translate(0,288)"/>
<path d="M0 0 C21.12 0 42.24 0 64 0 C64 10.56 64 21.12 64 32 C85.12 32 106.24 32 128 32 C128 42.56 128 53.12 128 64 C138.56 64 149.12 64 160 64 C160 85.12 160 106.24 160 128 C149.44 128 138.88 128 128 128 C128 138.56 128 149.12 128 160 C85.76 160 43.52 160 0 160 C0 149.44 0 138.88 0 128 C10.56 128 21.12 128 32 128 C32 106.88 32 85.76 32 64 C21.44 64 10.88 64 0 64 C0 42.88 0 21.76 0 0 Z " fill="#FDDFB7" transform="translate(192,128)"/>
<path d="M0 0 C31.68 0 63.36 0 96 0 C96 10.56 96 21.12 96 32 C106.56 32 117.12 32 128 32 C128 63.68 128 95.36 128 128 C75.2 128 22.4 128 -32 128 C-32 117.44 -32 106.88 -32 96 C-21.44 96 -10.88 96 0 96 C0 64.32 0 32.64 0 0 Z " fill="#0ABDF9" transform="translate(384,384)"/>
<path d="M0 0 C10.56 0 21.12 0 32 0 C32 10.56 32 21.12 32 32 C53.12 32 74.24 32 96 32 C96 42.56 96 53.12 96 64 C74.88 64 53.76 64 32 64 C32 95.68 32 127.36 32 160 C0.32 160 -31.36 160 -64 160 C-64 138.88 -64 117.76 -64 96 C-74.56 96 -85.12 96 -96 96 C-96 85.44 -96 74.88 -96 64 C-64.32 64 -32.64 64 0 64 C0 42.88 0 21.76 0 0 Z " fill="#134980" transform="translate(352,320)"/>
<path d="M0 0 C21.12 0 42.24 0 64 0 C64 31.68 64 63.36 64 96 C53.44 96 42.88 96 32 96 C32 106.56 32 117.12 32 128 C42.56 128 53.12 128 64 128 C64 138.56 64 149.12 64 160 C42.88 160 21.76 160 0 160 C0 138.88 0 117.76 0 96 C-10.56 96 -21.12 96 -32 96 C-32 85.44 -32 74.88 -32 64 C-53.12 64 -74.24 64 -96 64 C-96 53.44 -96 42.88 -96 32 C-64.32 32 -32.64 32 0 32 C0 21.44 0 10.88 0 0 Z " fill="#010000" transform="translate(352,96)"/>
<path d="M0 0 C20.79 0 41.58 0 63 0 C63 52.8 63 105.6 63 160 C52.44 160 41.88 160 31 160 C31 149.44 31 138.88 31 128 C20.44 128 9.88 128 -1 128 C-1 117.44 -1 106.88 -1 96 C-22.12 96 -43.24 96 -65 96 C-65 74.88 -65 53.76 -65 32 C-43.88 32 -22.76 32 -1 32 C-1 21.77 -1 11.54 -1 1 C-0.67 0.67 -0.34 0.34 0 0 Z " fill="#0DEBFB" transform="translate(449,256)"/>
<path d="M0 0 C52.8 0 105.6 0 160 0 C160 42.24 160 84.48 160 128 C149.44 128 138.88 128 128 128 C128 117.44 128 106.88 128 96 C117.44 96 106.88 96 96 96 C96 85.44 96 74.88 96 64 C85.44 64 74.88 64 64 64 C64 53.44 64 42.88 64 32 C42.88 32 21.76 32 0 32 C0 21.44 0 10.88 0 0 Z " fill="#8BFAFE" transform="translate(352,0)"/>
<path d="M0 0 C10.56 0 21.12 0 32 0 C32 31.68 32 63.36 32 96 C42.56 96 53.12 96 64 96 C64 85.44 64 74.88 64 64 C74.56 64 85.12 64 96 64 C96 85.12 96 106.24 96 128 C85.44 128 74.88 128 64 128 C64 149.12 64 170.24 64 192 C42.88 192 21.76 192 0 192 C0 181.44 0 170.88 0 160 C10.56 160 21.12 160 32 160 C32 149.44 32 138.88 32 128 C21.44 128 10.88 128 0 128 C0 85.76 0 43.52 0 0 Z " fill="#010000" transform="translate(96,64)"/>
<path d="M0 0 C10.56 0 21.12 0 32 0 C32 10.56 32 21.12 32 32 C53.12 32 74.24 32 96 32 C96 42.56 96 53.12 96 64 C74.88 64 53.76 64 32 64 C32 95.68 32 127.36 32 160 C21.44 160 10.88 160 0 160 C0 107.2 0 54.4 0 0 Z " fill="#010000" transform="translate(352,320)"/>
<path d="M0 0 C10.56 0 21.12 0 32 0 C32 52.8 32 105.6 32 160 C21.44 160 10.88 160 0 160 C0 138.88 0 117.76 0 96 C-21.12 96 -42.24 96 -64 96 C-64 85.44 -64 74.88 -64 64 C-42.88 64 -21.76 64 0 64 C0 42.88 0 21.76 0 0 Z " fill="#010000" transform="translate(128,320)"/>
<path d="M0 0 C10.56 0 21.12 0 32 0 C32 10.56 32 21.12 32 32 C42.56 32 53.12 32 64 32 C64 42.56 64 53.12 64 64 C74.56 64 85.12 64 96 64 C96 74.56 96 85.12 96 96 C64.32 96 32.64 96 0 96 C0 64.32 0 32.64 0 0 Z " fill="#0B57FA" transform="translate(0,416)"/>
<path d="M0 0 C21.12 0 42.24 0 64 0 C64 10.56 64 21.12 64 32 C74.56 32 85.12 32 96 32 C96 63.68 96 95.36 96 128 C85.44 128 74.88 128 64 128 C64 106.88 64 85.76 64 64 C53.44 64 42.88 64 32 64 C32 53.44 32 42.88 32 32 C21.44 32 10.88 32 0 32 C0 21.44 0 10.88 0 0 Z " fill="#0BD6FA" transform="translate(416,384)"/>
<path d="M0 0 C21.12 0 42.24 0 64 0 C64 10.56 64 21.12 64 32 C74.56 32 85.12 32 96 32 C96 53.12 96 74.24 96 96 C85.44 96 74.88 96 64 96 C64 85.44 64 74.88 64 64 C42.88 64 21.76 64 0 64 C0 42.88 0 21.76 0 0 Z " fill="#49F6FD" transform="translate(416,96)"/>
<path d="M0 0 C21.12 0 42.24 0 64 0 C64 10.56 64 21.12 64 32 C74.56 32 85.12 32 96 32 C96 53.12 96 74.24 96 96 C85.44 96 74.88 96 64 96 C64 85.44 64 74.88 64 64 C42.88 64 21.76 64 0 64 C0 42.88 0 21.76 0 0 Z " fill="#09A0F8" transform="translate(0,96)"/>
<path d="M0 0 C10.56 0 21.12 0 32 0 C32 31.68 32 63.36 32 96 C21.44 96 10.88 96 0 96 C0 106.56 0 117.12 0 128 C-10.56 128 -21.12 128 -32 128 C-32 96.32 -32 64.64 -32 32 C-21.44 32 -10.88 32 0 32 C0 21.44 0 10.88 0 0 Z " fill="#FFCB64" transform="translate(160,32)"/>
<path d="M0 0 C63.36 0 126.72 0 192 0 C192 10.56 192 21.12 192 32 C128.64 32 65.28 32 0 32 C0 21.44 0 10.88 0 0 Z " fill="#010000" transform="translate(160,0)"/>
<path d="M0 0 C52.8 0 105.6 0 160 0 C160 10.56 160 21.12 160 32 C107.2 32 54.4 32 0 32 C0 21.44 0 10.88 0 0 Z " fill="#0BE4FB" transform="translate(0,0)"/>
<path d="M0 0 C21.12 0 42.24 0 64 0 C64 21.12 64 42.24 64 64 C42.88 64 21.76 64 0 64 C0 42.88 0 21.76 0 0 Z " fill="#010000" transform="translate(224,416)"/>
<path d="M0 0 C21.12 0 42.24 0 64 0 C64 21.12 64 42.24 64 64 C42.88 64 21.76 64 0 64 C0 42.88 0 21.76 0 0 Z " fill="#FDDFB7" transform="translate(64,320)"/>
<path d="M0 0 C21.12 0 42.24 0 64 0 C64 21.12 64 42.24 64 64 C42.88 64 21.76 64 0 64 C0 42.88 0 21.76 0 0 Z " fill="#FDDFB7" transform="translate(384,288)"/>
<path d="M0 0 C42.24 0 84.48 0 128 0 C128 10.56 128 21.12 128 32 C85.76 32 43.52 32 0 32 C0 21.44 0 10.88 0 0 Z " fill="#010000" transform="translate(192,288)"/>
<path d="M0 0 C21.12 0 42.24 0 64 0 C64 10.56 64 21.12 64 32 C74.56 32 85.12 32 96 32 C96 42.56 96 53.12 96 64 C74.88 64 53.76 64 32 64 C32 53.44 32 42.88 32 32 C21.44 32 10.88 32 0 32 C0 21.44 0 10.88 0 0 Z " fill="#2DF4FC" transform="translate(416,160)"/>
<path d="M0 0 C31.68 0 63.36 0 96 0 C96 21.12 96 42.24 96 64 C85.44 64 74.88 64 64 64 C64 53.44 64 42.88 64 32 C42.88 32 21.76 32 0 32 C0 21.44 0 10.88 0 0 Z " fill="#010000" transform="translate(256,128)"/>
<path d="M0 0 C10.56 0 21.12 0 32 0 C32 21.12 32 42.24 32 64 C10.88 64 -10.24 64 -32 64 C-32 53.44 -32 42.88 -32 32 C-21.44 32 -10.88 32 0 32 C0 21.44 0 10.88 0 0 Z " fill="#09A5F9" transform="translate(384,448)"/>
<path d="M0 0 C10.56 0 21.12 0 32 0 C32 31.68 32 63.36 32 96 C21.44 96 10.88 96 0 96 C0 64.32 0 32.64 0 0 Z " fill="#010000" transform="translate(32,288)"/>
<path d="M0 0 C10.56 0 21.12 0 32 0 C32 10.56 32 21.12 32 32 C42.56 32 53.12 32 64 32 C64 42.56 64 53.12 64 64 C42.88 64 21.76 64 0 64 C0 42.88 0 21.76 0 0 Z " fill="#010000" transform="translate(352,192)"/>
<path d="M0 0 C10.56 0 21.12 0 32 0 C32 10.56 32 21.12 32 32 C42.56 32 53.12 32 64 32 C64 42.56 64 53.12 64 64 C42.88 64 21.76 64 0 64 C0 42.88 0 21.76 0 0 Z " fill="#010000" transform="translate(192,64)"/>
<path d="M0 0 C31.68 0 63.36 0 96 0 C96 10.56 96 21.12 96 32 C64.32 32 32.64 32 0 32 C0 21.44 0 10.88 0 0 Z " fill="#0BD7FA" transform="translate(64,32)"/>
<path d="M0 0 C21.12 0 42.24 0 64 0 C64 21.12 64 42.24 64 64 C53.44 64 42.88 64 32 64 C32 53.44 32 42.88 32 32 C21.44 32 10.88 32 0 32 C0 21.44 0 10.88 0 0 Z " fill="#A9FBFF" transform="translate(448,0)"/>
<path d="M0 0 C21.12 0 42.24 0 64 0 C64 10.56 64 21.12 64 32 C42.88 32 21.76 32 0 32 C0 21.44 0 10.88 0 0 Z " fill="#010000" transform="translate(288,480)"/>
<path d="M0 0 C21.12 0 42.24 0 64 0 C64 10.56 64 21.12 64 32 C42.88 32 21.76 32 0 32 C0 21.44 0 10.88 0 0 Z " fill="#0882F8" transform="translate(224,480)"/>
<path d="M0 0 C21.12 0 42.24 0 64 0 C64 10.56 64 21.12 64 32 C42.88 32 21.76 32 0 32 C0 21.44 0 10.88 0 0 Z " fill="#010000" transform="translate(160,480)"/>
<path d="M0 0 C21.12 0 42.24 0 64 0 C64 10.56 64 21.12 64 32 C42.88 32 21.76 32 0 32 C0 21.44 0 10.88 0 0 Z " fill="#484C4D" transform="translate(288,448)"/>
<path d="M0 0 C21.12 0 42.24 0 64 0 C64 10.56 64 21.12 64 32 C42.88 32 21.76 32 0 32 C0 21.44 0 10.88 0 0 Z " fill="#484C4D" transform="translate(160,448)"/>
<path d="M0 0 C21.12 0 42.24 0 64 0 C64 10.56 64 21.12 64 32 C42.88 32 21.76 32 0 32 C0 21.44 0 10.88 0 0 Z " fill="#1C468D" transform="translate(160,416)"/>
<path d="M0 0 C10.56 0 21.12 0 32 0 C32 21.12 32 42.24 32 64 C21.44 64 10.88 64 0 64 C0 42.88 0 21.76 0 0 Z " fill="#0977F9" transform="translate(0,288)"/>
<path d="M0 0 C10.56 0 21.12 0 32 0 C32 21.12 32 42.24 32 64 C21.44 64 10.88 64 0 64 C0 42.88 0 21.76 0 0 Z " fill="#010000" transform="translate(448,288)"/>
<path d="M0 0 C10.56 0 21.12 0 32 0 C32 21.12 32 42.24 32 64 C21.44 64 10.88 64 0 64 C0 42.88 0 21.76 0 0 Z " fill="#FDDFB7" transform="translate(320,192)"/>
<path d="M0 0 C10.56 0 21.12 0 32 0 C32 21.12 32 42.24 32 64 C21.44 64 10.88 64 0 64 C0 42.88 0 21.76 0 0 Z " fill="#010000" transform="translate(288,192)"/>
<path d="M0 0 C10.56 0 21.12 0 32 0 C32 21.12 32 42.24 32 64 C21.44 64 10.88 64 0 64 C0 42.88 0 21.76 0 0 Z " fill="#010000" transform="translate(192,192)"/>
<path d="M0 0 C10.56 0 21.12 0 32 0 C32 21.12 32 42.24 32 64 C21.44 64 10.88 64 0 64 C0 42.88 0 21.76 0 0 Z " fill="#FDDFB7" transform="translate(160,192)"/>
<path d="M0 0 C10.56 0 21.12 0 32 0 C32 21.12 32 42.24 32 64 C21.44 64 10.88 64 0 64 C0 42.88 0 21.76 0 0 Z " fill="#FFCB64" transform="translate(352,128)"/>
<path d="M0 0 C21.12 0 42.24 0 64 0 C64 10.56 64 21.12 64 32 C42.88 32 21.76 32 0 32 C0 21.44 0 10.88 0 0 Z " fill="#6AF8FD" transform="translate(416,96)"/>
<path d="M0 0 C21.12 0 42.24 0 64 0 C64 10.56 64 21.12 64 32 C42.88 32 21.76 32 0 32 C0 21.44 0 10.88 0 0 Z " fill="#010000" transform="translate(352,32)"/>
<path d="M0 0 C21.12 0 42.24 0 64 0 C64 10.56 64 21.12 64 32 C42.88 32 21.76 32 0 32 C0 21.44 0 10.88 0 0 Z " fill="#0AC4FA" transform="translate(0,32)"/>
<path d="M0 0 C21.12 0 42.24 0 64 0 C64 10.56 64 21.12 64 32 C42.88 32 21.76 32 0 32 C0 21.44 0 10.88 0 0 Z " fill="#7AF9FE" transform="translate(352,0)"/>
<path d="M0 0 C21.12 0 42.24 0 64 0 C64 10.56 64 21.12 64 32 C42.88 32 21.76 32 0 32 C0 21.44 0 10.88 0 0 Z " fill="#0BD4FA" transform="translate(0,0)"/>
<path d="M0 0 C10.56 0 21.12 0 32 0 C32 10.56 32 21.12 32 32 C21.44 32 10.88 32 0 32 C0 21.44 0 10.88 0 0 Z " fill="#0995F8" transform="translate(352,480)"/>
<path d="M0 0 C10.56 0 21.12 0 32 0 C32 10.56 32 21.12 32 32 C21.44 32 10.88 32 0 32 C0 21.44 0 10.88 0 0 Z " fill="#134995" transform="translate(320,416)"/>
<path d="M0 0 C10.56 0 21.12 0 32 0 C32 10.56 32 21.12 32 32 C21.44 32 10.88 32 0 32 C0 21.44 0 10.88 0 0 Z " fill="#35478D" transform="translate(288,416)"/>
<path d="M0 0 C10.56 0 21.12 0 32 0 C32 10.56 32 21.12 32 32 C21.44 32 10.88 32 0 32 C0 21.44 0 10.88 0 0 Z " fill="#134980" transform="translate(160,416)"/>
<path d="M0 0 C10.56 0 21.12 0 32 0 C32 10.56 32 21.12 32 32 C21.44 32 10.88 32 0 32 C0 21.44 0 10.88 0 0 Z " fill="#35498D" transform="translate(320,384)"/>
<path d="M0 0 C10.56 0 21.12 0 32 0 C32 10.56 32 21.12 32 32 C21.44 32 10.88 32 0 32 C0 21.44 0 10.88 0 0 Z " fill="#134995" transform="translate(256,384)"/>
<path d="M0 0 C10.56 0 21.12 0 32 0 C32 10.56 32 21.12 32 32 C21.44 32 10.88 32 0 32 C0 21.44 0 10.88 0 0 Z " fill="#35478D" transform="translate(224,384)"/>
<path d="M0 0 C10.56 0 21.12 0 32 0 C32 10.56 32 21.12 32 32 C21.44 32 10.88 32 0 32 C0 21.44 0 10.88 0 0 Z " fill="#21478D" transform="translate(160,384)"/>
<path d="M0 0 C10.56 0 21.12 0 32 0 C32 10.56 32 21.12 32 32 C21.44 32 10.88 32 0 32 C0 21.44 0 10.88 0 0 Z " fill="#F7D9B2" transform="translate(96,320)"/>
<path d="M0 0 C10.56 0 21.12 0 32 0 C32 10.56 32 21.12 32 32 C21.44 32 10.88 32 0 32 C0 21.44 0 10.88 0 0 Z " fill="#F7D9B2" transform="translate(384,288)"/>
<path d="M0 0 C10.56 0 21.12 0 32 0 C32 10.56 32 21.12 32 32 C21.44 32 10.88 32 0 32 C0 21.44 0 10.88 0 0 Z " fill="#010000" transform="translate(416,256)"/>
<path d="M0 0 C10.56 0 21.12 0 32 0 C32 10.56 32 21.12 32 32 C21.44 32 10.88 32 0 32 C0 21.44 0 10.88 0 0 Z " fill="#010000" transform="translate(320,256)"/>
<path d="M0 0 C10.56 0 21.12 0 32 0 C32 10.56 32 21.12 32 32 C21.44 32 10.88 32 0 32 C0 21.44 0 10.88 0 0 Z " fill="#010000" transform="translate(160,256)"/>
<path d="M0 0 C10.56 0 21.12 0 32 0 C32 10.56 32 21.12 32 32 C21.44 32 10.88 32 0 32 C0 21.44 0 10.88 0 0 Z " fill="#010000" transform="translate(64,256)"/>
<path d="M0 0 C10.56 0 21.12 0 32 0 C32 10.56 32 21.12 32 32 C21.44 32 10.88 32 0 32 C0 21.44 0 10.88 0 0 Z " fill="#099CF9" transform="translate(96,192)"/>
<path d="M0 0 C10.56 0 21.12 0 32 0 C32 10.56 32 21.12 32 32 C21.44 32 10.88 32 0 32 C0 21.44 0 10.88 0 0 Z " fill="#5FF8FD" transform="translate(480,128)"/>
<path d="M0 0 C10.56 0 21.12 0 32 0 C32 10.56 32 21.12 32 32 C21.44 32 10.88 32 0 32 C0 21.44 0 10.88 0 0 Z " fill="#40F5FC" transform="translate(416,128)"/>
<path d="M0 0 C10.56 0 21.12 0 32 0 C32 10.56 32 21.12 32 32 C21.44 32 10.88 32 0 32 C0 21.44 0 10.88 0 0 Z " fill="#7AF9FD" transform="translate(480,96)"/>
<path d="M0 0 C10.56 0 21.12 0 32 0 C32 10.56 32 21.12 32 32 C21.44 32 10.88 32 0 32 C0 21.44 0 10.88 0 0 Z " fill="#57F7FD" transform="translate(416,96)"/>
<path d="M0 0 C10.56 0 21.12 0 32 0 C32 10.56 32 21.12 32 32 C21.44 32 10.88 32 0 32 C0 21.44 0 10.88 0 0 Z " fill="#010000" transform="translate(416,64)"/>
<path d="M0 0 C10.56 0 21.12 0 32 0 C32 10.56 32 21.12 32 32 C21.44 32 10.88 32 0 32 C0 21.44 0 10.88 0 0 Z " fill="#010000" transform="translate(128,32)"/>
<path d="M0 0 C10.56 0 21.12 0 32 0 C32 10.56 32 21.12 32 32 C21.44 32 10.88 32 0 32 C0 21.44 0 10.88 0 0 Z " fill="#93FAFE" transform="translate(416,0)"/>
<path d="M0 0 C10.56 0 21.12 0 32 0 C32 10.56 32 21.12 32 32 C21.44 32 10.88 32 0 32 C0 21.44 0 10.88 0 0 Z " fill="#5FF7FD" transform="translate(352,0)"/>
</svg>
